<?xml version="1.0" encoding="iso-8859-1"?>
<!-- Uploaded to: SVG Repo, www.svgrepo.com, Generator: SVG Repo Mixer Tools -->
<!DOCTYPE svg PUBLIC "-//W3C//DTD SVG 1.1//EN" "http://www.w3.org/Graphics/SVG/1.1/DTD/svg11.dtd">
<svg fill="#000000" version="1.1" id="Capa_1" xmlns="http://www.w3.org/2000/svg" xmlns:xlink="http://www.w3.org/1999/xlink" 
	 width="800px" height="800px" viewBox="0 0 578.225 578.225"
	 xml:space="preserve">
<g>
	<path d="M318.211,162.213c-87.334,68.62-67.655,135.185-51.657,165.077c-13.187,23.944-22.96,45.518-30.112,64.536
		c-4.351-73.354-17.278-125.421-29.854-160.161c12.374-21.305,24.843-63.973-28.142-113.603C106.919,51.067,0,84.832,0,84.832
		c86.12,52.536,33.306,116.796,82.955,163.299c28.735,26.918,60.234,23.858,82.83,15.338
		c-6.273-32.599-20.339-91.045-44.322-117.705c0,0,35.697,33.67,60.54,76.271c16.754,39.695,37.319,115.184,35.626,237.363
		c0.137,22.636,0.071,33.352,0.262,34.518c0.775,4.629,4.781,7.985,9.419,7.985c0.201,0,0.393,0,0.583-0.019
		c4.887-0.287,8.76-4.218,8.979-9.113c0.507-11.093,0.832-21.831,0.995-32.254c3.347-24.433,13.301-63.342,40.784-115.362
		c0.057,0.058,0.066,0.077,0.124,0.134c39.119-74.214,117.704-136.255,117.704-136.255
		c-37.714,35.238-65.158,117.293-78.221,163.241c31.346,15.032,76.117,23.342,120.679-11.666
		c76.979-60.482,9.267-159.206,139.287-223.8C578.206,136.816,429.117,75.08,318.211,162.213z"/>
</g>
</svg>