<svg xmlns="http://www.w3.org/2000/svg" width="50" height="50" viewBox="0 0 50 50"><path d="M28.408 34.624a13.044 13.044 0 01-13.029-13.029A13.043 13.043 0 0128.408 8.566a13.044 13.044 0 0113.029 13.029 13.044 13.044 0 01-13.029 13.029z" fill="#ffe269"/><path d="M28.408 9.272a12.333 12.333 0 0112.319 12.319A12.333 12.333 0 0128.408 33.91a12.333 12.333 0 01-12.319-12.319A12.333 12.333 0 0128.408 9.272m0-1.42a13.739 13.739 0 00-13.739 13.739A13.739 13.739 0 0028.408 35.33a13.739 13.739 0 0013.74-13.739 13.739 13.739 0 00-13.74-13.739zm1.473-3.211a1.374 1.374 0 01-1.472 1.248 1.374 1.374 0 01-1.472-1.248V1.249A1.374 1.374 0 0128.409 0a1.374 1.374 0 011.472 1.249zm0 37.292a1.374 1.374 0 01-1.472 1.248 1.374 1.374 0 01-1.472-1.248v-3.392a1.374 1.374 0 011.472-1.248 1.374 1.374 0 011.472 1.248zm11.554-31.287a1.374 1.374 0 01-1.924-.158 1.375 1.375 0 01-.158-1.924l2.4-2.4a1.374 1.374 0 011.924.158 1.374 1.374 0 01.158 1.924zm-26.369 26.37a1.374 1.374 0 01-1.924-.158 1.374 1.374 0 01-.158-1.924l2.4-2.4a1.374 1.374 0 011.923.158 1.374 1.374 0 01.158 1.924zm30.293-13.953a1.374 1.374 0 01-1.248-1.472 1.374 1.374 0 011.248-1.472h3.392a1.374 1.374 0 011.248 1.472 1.374 1.374 0 01-1.248 1.472zm-37.293 0a1.374 1.374 0 01-1.248-1.472 1.374 1.374 0 011.248-1.472h3.392a1.374 1.374 0 011.248 1.472 1.374 1.374 0 01-1.248 1.472zm31.288 11.554a1.375 1.375 0 01.158-1.924 1.375 1.375 0 011.924-.158l2.4 2.4a1.375 1.375 0 01-.158 1.924 1.375 1.375 0 01-1.924.158zm-26.37-26.37a1.374 1.374 0 01.158-1.924 1.374 1.374 0 011.924-.158l2.4 2.4a1.375 1.375 0 01-.159 1.924 1.374 1.374 0 01-1.923.158z" fill="#fecb2f"/><path d="M43.465 49.29c-.105 0-.21 0-.314-.009H32.172c-.118 0-.236.009-.355.009H10.226a9.528 9.528 0 01-9.517-9.517 9.468 9.468 0 019.225-9.509l.55-.017.121-.536a9.46 9.46 0 019.28-7.409 9.5 9.5 0 019.506 9.086l.066 1.469 1.11-.965a6.669 6.669 0 014.375-1.636 6.684 6.684 0 016.676 6.676v.092l-.01.857.844-.148a5.878 5.878 0 011.016-.09 5.83 5.83 0 015.824 5.824 5.843 5.843 0 01-5.386 5.805l-.144.011a7.445 7.445 0 01-.297.007z" fill="#f2f2f2"/><path d="M19.886 23.011a8.787 8.787 0 018.8 8.408l.131 2.938 2.22-1.929a5.959 5.959 0 013.909-1.462 5.971 5.971 0 015.966 5.957v.092l-.021 1.713 1.688-.3a5.167 5.167 0 01.893-.08 5.12 5.12 0 015.114 5.114 5.13 5.13 0 01-4.729 5.1l-.1.008h-.009c-.092 0-.184.008-.277.008s-.185 0-.276-.008H32.15c-.108 0-.217.009-.327.009H10.232a8.817 8.817 0 01-8.806-8.807 8.754 8.754 0 012.491-6.136 8.761 8.761 0 016.045-2.664l1.1-.033.243-1.073a8.842 8.842 0 013.055-4.9 8.7 8.7 0 015.532-1.956m0-1.42a10.229 10.229 0 00-9.972 7.962A10.225 10.225 0 000 39.772 10.227 10.227 0 0010.227 50h21.591c.129 0 .256 0 .384-.01h10.912q.175.009.352.01t.352-.01h.138v-.01A6.533 6.533 0 0050 43.466a6.534 6.534 0 00-6.534-6.534 6.594 6.594 0 00-1.139.1v-.1a7.387 7.387 0 00-7.386-7.387 7.355 7.355 0 00-4.841 1.811 10.227 10.227 0 00-10.214-9.765z" fill="#c9c9c9"/></svg>