<?xml version="1.0" ?><!-- Uploaded to: SVG Repo, www.svgrepo.com, Generator: SVG Repo Mixer Tools -->
<svg fill="#000000" width="800px" height="800px" viewBox="0 0 32 32" id="OBJECT" xmlns="http://www.w3.org/2000/svg"><title/><path d="M25.28,24.31C24.59,25,23,26.83,23,28.13a3,3,0,0,0,6,0c0-1.3-1.59-3.11-2.28-3.82A1,1,0,0,0,25.28,24.31Z"/><path d="M2,7A1,1,0,0,0,1,8v8a1,1,0,0,0,1,1H4.79L3.13,7Z"/><path d="M26,7H19V17h2v3a3,3,0,0,0,3,3h4a3,3,0,0,0,3-3V12A5,5,0,0,0,26,7Z"/><path d="M16,3a1,1,0,0,0,0-2H6A1,1,0,0,0,6,3h4V5H6A1,1,0,0,0,5,6.16l2,12A1,1,0,0,0,8,19h8a1,1,0,0,0,1-1V6a1,1,0,0,0-1-1H12V3Z"/></svg>