<?xml version="1.0" encoding="iso-8859-1"?>
<!-- Uploaded to: SVG Repo, www.svgrepo.com, Generator: SVG Repo Mixer Tools -->
<svg fill="#000000" height="800px" width="800px" version="1.1" id="Layer_1" xmlns="http://www.w3.org/2000/svg" xmlns:xlink="http://www.w3.org/1999/xlink" 
	 viewBox="0 0 388.633 388.633" xml:space="preserve">
<g>
	<g>
		<g>
			<path d="M376.304,304.808c-1.288-2.491-3.859-4.051-6.662-4.051h-38.823c-2.021,0-3.957,0.816-5.368,2.262
				c-25.549,26.186-59.769,40.607-96.354,40.607c-74.217,0-134.597-60.38-134.597-134.596c0-22.825,5.815-45.371,16.815-65.198
				c2.01-3.622,0.703-8.187-2.919-10.197c-3.623-2.01-8.187-0.702-10.197,2.919C85.966,158.603,79.5,183.664,79.5,209.03
				c0,82.488,67.109,149.596,149.597,149.596c39.594,0,76.697-15.2,104.836-42.87h20.373
				c-31.168,36.485-76.955,57.879-125.209,57.879c-90.764,0-164.605-73.842-164.605-164.605S138.333,44.425,229.097,44.425
				c48.255,0,94.041,21.394,125.209,57.879h-20.373c-28.139-27.67-65.242-42.87-104.836-42.87
				c-36.926,0-72.388,13.567-99.853,38.201c-3.083,2.766-3.341,7.508-0.575,10.591c2.765,3.083,7.506,3.341,10.591,0.575
				c24.708-22.162,56.613-34.368,89.837-34.368c36.585,0,70.804,14.421,96.354,40.607c1.412,1.447,3.347,2.262,5.368,2.262h38.823
				c2.804,0,5.374-1.564,6.662-4.054c1.288-2.49,1.08-5.491-0.541-7.78c-33.718-47.617-88.546-76.045-146.665-76.045
				c-99.035,0-179.605,80.571-179.605,179.605s80.571,179.605,179.605,179.605c58.119,0,112.947-28.428,146.665-76.045
				C377.384,310.3,377.592,307.299,376.304,304.808z"/>
			<path d="M123.805,116.621C123.792,116.6,123.787,116.593,123.805,116.621L123.805,116.621z"/>
			<path d="M115.458,113.708c-3.005,0.921-5.144,3.672-5.309,6.811c-0.352,6.675,8.058,10.423,12.79,5.668
				c2.506-2.518,2.881-6.506,0.93-9.47C122.08,114.001,118.562,112.756,115.458,113.708z"/>
			<path d="M123.805,116.621c0.014,0.022,0.037,0.056,0.063,0.096C123.837,116.668,123.817,116.639,123.805,116.621z"/>
			<path d="M123.869,116.717C123.936,116.82,124.004,116.922,123.869,116.717L123.869,116.717z"/>
			<path d="M86.491,37.5c0-20.677-16.822-37.5-37.5-37.5c-20.678,0-37.5,16.823-37.5,37.5S28.313,75,48.991,75
				C69.669,75,86.491,58.177,86.491,37.5z M48.991,60c-12.407,0-22.5-10.094-22.5-22.5S36.584,15,48.991,15
				c12.407,0,22.5,10.094,22.5,22.5S61.397,60,48.991,60z"/>
		</g>
	</g>
</g>
</svg>