<?xml version="1.0" encoding="utf-8"?>
<!-- Uploaded to: SVG Repo, www.svgrepo.com, Generator: SVG Repo Mixer Tools -->
<svg width="800px" height="800px" viewBox="0 0 1024 1024" class="icon"  version="1.1" xmlns="http://www.w3.org/2000/svg"><path d="M343.7 392c-84.3 55-140.1 150.1-140.1 258.3 0 170.2 138 308.2 308.2 308.2S820 820.5 820 650.3C820 542.1 764.3 447 679.9 392V230.1C679.9 137.2 604.6 62 511.8 62 419.2 62 343.7 137.2 343.7 230.1V392z" fill="#5E676F" /><path d="M623.8 424.4c83 41.3 140.1 126.9 140.1 225.9 0 139.3-112.9 252.1-252.1 252.1S259.6 789.6 259.6 650.3c0-99 57.1-184.7 140.1-225.9V230.1c0-61.8 50.3-112 112.1-112 61.9 0 112.1 50.1 112.1 112v194.3h-0.1z" fill="#FFFFFF" /><path d="M455.7 448.3c-81 24.1-140.1 99.1-140.1 188 0 108.3 87.8 196.1 196.1 196.1s196.1-87.8 196.1-196.1c0-88.8-59.1-163.9-140.1-188v-218c0-31.1-25.1-56.2-56-56.2-31.2 0-56 25.2-56 56.2v218z" fill="#5E676F" /><path d="M539.8 470.5c79.5 13.3 140.1 82.5 140.1 165.8 0 92.8-75.3 168.1-168.1 168.1s-168.1-75.3-168.1-168.1c0-83.3 60.6-152.4 140.1-165.8V230.3c0-15.7 12.4-28.2 28-28.2 15.5 0 28 12.6 28 28.2v240.2z" fill="#FFFFFF" /><path d="M539.8 734.4c0 14-28 14-28 14-61.9 0-112.1-50.2-112.1-112.1 0 0 0-28 14-28s14 17.6 14 28c0 28 42 84 84 84 19.9 0.1 28.1 0.1 28.1 14.1z" fill="#5E676F" /></svg>